<?xml version="1.0" encoding="UTF-8"?>
<svg width="331px" height="226px" viewBox="0 0 331 226" version="1.1" xmlns="http://www.w3.org/2000/svg" xmlns:xlink="http://www.w3.org/1999/xlink">
    <!-- Generator: sketchtool 56 (101010) - https://sketch.com -->
    <title>107DE1F9-DA4F-413C-8441-AAB810639EDE</title>
    <desc>Created with sketchtool.</desc>
    <g id="Page-1" stroke="none" stroke-width="1" fill="none" fill-rule="evenodd">
        <g id="BT-desktop-form-generic" transform="translate(-1002.000000, -137.000000)">
            <g id="people/person-with-pc/on-blue" transform="translate(872.000000, 59.000000)">
                <g id="Consultation_illustration_UseBackgroundBlue_RGB">
                    <rect id="Rectangle-path" x="0" y="0" width="599" height="399"/>
                    <path d="M269.103685,112.752709 C269.103685,131.904709 253.553176,147.442238 234.385176,147.442238 C215.217176,147.442238 199.666667,131.904709 199.666667,112.752709 C199.666667,93.6007094 215.217176,78.0631801 234.385176,78.0631801 C253.553176,78.0631801 269.103685,93.6007094 269.103685,112.752709" id="Shape" fill="#0F1941" fill-rule="nonzero"/>
                    <path d="M399.333349,138.805056 C399.333349,162.745057 379.883466,182.178704 355.923466,182.178704 C331.963466,182.178704 312.513583,162.745057 312.513583,138.805056 C312.513583,114.865056 331.963466,95.4314092 355.923466,95.4314092 C379.883466,95.4314092 399.333349,114.818115 399.333349,138.805056" id="Shape" fill="#FFB511" fill-rule="nonzero"/>
                    <path d="M234.385176,156.12636 C215.217176,156.12636 199.666667,171.66389 199.666667,190.81589 L199.666667,190.81589 L199.666667,242.873655 L269.103685,242.873655 L269.103685,190.81589 C269.103685,171.66389 253.553176,156.12636 234.385176,156.12636 Z" id="Shape" fill="#0F1941" fill-rule="nonzero"/>
                    <path d="M451.434575,260.194934 L138.921013,260.194934 C134.129013,260.194934 130.22964,256.298816 130.22964,251.510817 L130.22964,251.510817 C130.22964,246.722817 134.129013,242.826699 138.921013,242.826699 L451.434575,242.826699 C456.226575,242.826699 460.125947,246.722817 460.125947,251.510817 L460.125947,251.510817 C460.078967,256.345758 456.226575,260.194934 451.434575,260.194934 Z" id="Shape" fill="#F7F5F0" fill-rule="nonzero"/>
                    <path d="M399.333349,234.189525 C399.333349,210.249525 379.883466,190.815878 355.923466,190.815878 C331.963466,190.815878 312.513583,210.249525 312.513583,234.189525 L312.513583,234.189525 L312.513583,303.568583 L399.333349,303.568583 L399.333349,234.189525 L399.333349,234.189525 Z" id="Shape" fill="#FFB511" fill-rule="nonzero"/>
                </g>
            </g>
        </g>
    </g>
</svg>