<?xml version="1.0" encoding="utf-8"?>
<!-- Generator: Adobe Illustrator 23.1.0, SVG Export Plug-In . SVG Version: 6.00 Build 0)  -->
<svg version="1.1" id="Layer_1" xmlns="http://www.w3.org/2000/svg" xmlns:xlink="http://www.w3.org/1999/xlink" x="0px" y="0px"
	 viewBox="0 0 47.8 47.9" style="enable-background:new 0 0 47.8 47.9;" xml:space="preserve">
<style type="text/css">
	.st0{fill:#2175D9;}
</style>
<path class="st0" d="M37.2,13.7l-2.8-2.8l2-2l2.8,2.8L37.2,13.7z M12.6,38l-3.8,1l1-3.8l21.6-21.6l2.8,2.8L12.6,38z M43.4,10.1
	l-5.6-5.6c-0.8-0.8-2-0.8-2.8,0L6.4,32.8C6.2,33,6,33.4,6,33.8l-2,7.6c-0.2,0.6,0,1.4,0.6,1.8C5,43.6,5.4,43.8,6,43.8
	c0.2,0,0.4,0,0.4,0l7.6-2c0.4,0,0.6-0.2,1-0.6l28.3-28.3C44.2,12.3,44.2,10.9,43.4,10.1z"/>
</svg>
