<?xml version="1.0" encoding="utf-8"?>
<!-- Generator: Adobe Illustrator 22.0.1, SVG Export Plug-In . SVG Version: 6.00 Build 0)  -->
<!DOCTYPE svg PUBLIC "-//W3C//DTD SVG 1.1//EN" "http://www.w3.org/Graphics/SVG/1.1/DTD/svg11.dtd">
<svg version="1.1" xmlns="http://www.w3.org/2000/svg" xmlns:xlink="http://www.w3.org/1999/xlink" x="0px" y="0px" width="120px"
	 height="120px" viewBox="0 0 120 120" style="enable-background:new 0 0 120 120;" xml:space="preserve">
<style type="text/css">
	.st0{display:none;}
	.st1{display:inline;fill:none;stroke:#00FFFF;stroke-width:0.25;stroke-linecap:round;stroke-miterlimit:10;}
	.st2{fill:#2175D9;}
	.st3{fill:none;}
</style>
<g id="SAFE_AREA" class="st0">
	<rect x="20" y="20" class="st1" width="80" height="80"/>
</g>
<g id="LAYER_1">
	<circle class="st2" cx="60.1" cy="43.6" r="3"/>
	<path class="st2" d="M60.1,71.8c-1.1,0-2-0.9-2-2V52.5c0-1.1,0.9-2,2-2s2,0.9,2,2v17.2C62.1,70.9,61.2,71.8,60.1,71.8z"/>
	<path class="st2" d="M68.9,94.5c-0.9,0-1.8-0.2-2.6-0.7l-18.4-11c-0.6-0.4-1.4-0.6-2.1-0.6H28.1c-4.4,0-8-3.6-8-8v-38
		c0-4.4,3.6-8,8-8h63.9c4.4,0,8,3.6,8,8v38.9c0,4.4-3.6,8-8,8H73.9v6.4c0,1.8-0.9,3.4-2.5,4.3C70.6,94.3,69.7,94.5,68.9,94.5z
		 M28.1,32.2c-2.2,0-4,1.8-4,4v38c0,2.2,1.8,4,4,4h17.7c1.5,0,2.9,0.4,4.2,1.2l18.4,11c0.4,0.3,0.9,0.1,1,0c0.2-0.1,0.5-0.3,0.5-0.9
		v-8.4c0-1.1,0.9-2,2-2h20.1c2.2,0,4-1.8,4-4V36.2c0-2.2-1.8-4-4-4H28.1z"/>
	<rect class="st3" width="120" height="120"/>
	<g>
	</g>
	<g>
	</g>
	<g>
	</g>
	<g>
	</g>
	<g>
	</g>
	<g>
	</g>
	<g>
	</g>
	<g>
	</g>
	<g>
	</g>
	<g>
	</g>
	<g>
	</g>
	<g>
	</g>
	<g>
	</g>
	<g>
	</g>
	<g>
	</g>
</g>
</svg>
