<svg version="1.1" viewBox="0 0 498.86 498.7" xml:space="preserve" xmlns="http://www.w3.org/2000/svg">
<style type="text/css">
	.st0{fill:none;}
	.st1{fill:#F7F5F0;}
	.st2{fill:#6BA5B4;}
	.st3{fill:#0F1941;}
</style>
<rect class="st0" x="-406.2" y="-185.3" width="1275" height="850"/>
<circle class="st1" cx="221.7" cy="221.7" r="184.8"/>
<path class="st2" d="m238 304.3 91.2-164.4c2.1-3 3.4-6.7 3.4-10.6 0-10-7.9-18.1-17.8-18.4-6.8-0.3-13.5 3.1-17 9.5l-78.9 142.2-56.7-70.9-0.1-0.1c-0.2-0.3-0.5-0.6-0.7-0.8s-0.3-0.4-0.5-0.6l-0.6-0.6c-1.4-1.3-2.9-2.3-4.5-3.1-1.3-0.6-2.7-1.1-4.1-1.4h-0.1c-0.3-0.1-0.6-0.1-1-0.2-0.3 0-0.6-0.1-0.8-0.1h-0.7c-0.4 0-0.7-0.1-1.1-0.1h-0.1-0.6c-0.4 0-0.8 0-1.1 0.1-0.3 0-0.5 0.1-0.8 0.1s-0.7 0.1-1 0.2-0.6 0.1-0.8 0.2c-0.3 0.1-0.6 0.1-0.9 0.2s-0.6 0.2-0.9 0.3-0.6 0.2-0.8 0.3c-0.3 0.1-0.6 0.3-0.9 0.4s-0.5 0.2-0.8 0.4-0.6 0.3-0.9 0.5c-0.2 0.1-0.5 0.3-0.7 0.4-0.3 0.2-0.6 0.4-0.9 0.7-0.2 0.1-0.3 0.2-0.5 0.3l-0.1 0.1c-0.3 0.2-0.6 0.5-0.8 0.7s-0.4 0.3-0.6 0.5l-1.3 1.3c-1 1.2-1.7 2.4-2.4 3.8-0.6 1.3-1.1 2.7-1.4 4.2-0.1 0.3-0.1 0.7-0.2 1 0 0.3-0.1 0.6-0.1 0.8v0.7c0 0.4-0.1 0.7-0.1 1.1v0.1 0.6c0 0.4 0 0.8 0.1 1.1 0 0.3 0.1 0.5 0.1 0.8s0.1 0.7 0.2 1 0.1 0.6 0.2 0.8c0.1 0.3 0.1 0.6 0.2 0.9l0.3 0.9c0.1 0.3 0.2 0.6 0.3 0.8 0.1 0.3 0.3 0.6 0.4 0.9s0.2 0.5 0.4 0.8 0.3 0.6 0.5 0.9c0.1 0.2 0.3 0.5 0.4 0.7 0.2 0.3 0.4 0.6 0.7 0.9 0.1 0.2 0.2 0.3 0.3 0.5l73.8 92.2 0.3 0.3c0.5 0.6 1.1 1.2 1.7 1.8 0.5 0.4 1 0.9 1.5 1.3 0.1 0 0.1 0.1 0.2 0.1l0.1 0.1c0.5 0.4 1.1 0.7 1.6 1.1 0.1 0.1 0.2 0.1 0.3 0.2h0.1c0.1 0.1 0.3 0.1 0.4 0.2 0.2 0.1 0.3 0.2 0.5 0.3 0.1 0 0.2 0.1 0.3 0.1s0.1 0 0.2 0.1c0.4 0.2 0.8 0.3 1.2 0.5 0.1 0 0.2 0.1 0.3 0.1s0.2 0.1 0.2 0.1h0.1c0.4 0.1 0.9 0.3 1.4 0.4 0.1 0 0.2 0.1 0.3 0.1h0.2c0.5 0.1 1 0.2 1.6 0.3 0.1 0 0.2 0 0.3 0.1h0.1 0.3c0.6 0.1 1.1 0.1 1.7 0.1 0.5 0 0.9 0 1.4-0.1h0.3c0.2 0 0.4 0 0.6-0.1 0.2 0 0.3 0 0.5-0.1 0.2 0 0.4-0.1 0.6-0.1h0.1c0.2 0 0.4-0.1 0.6-0.1s0.4-0.1 0.6-0.1c0.1 0 0.3-0.1 0.4-0.1 0.3-0.1 0.6-0.2 0.8-0.3s0.4-0.1 0.5-0.2c0.1 0 0.2-0.1 0.3-0.1 0.2-0.1 0.5-0.2 0.7-0.3 0.1 0 0.2-0.1 0.3-0.1 0.2-0.1 0.5-0.2 0.7-0.4 0.2-0.1 0.3-0.2 0.5-0.3s0.5-0.3 0.7-0.4c0.4-0.2 0.7-0.5 1.1-0.7 0.2-0.2 0.5-0.3 0.7-0.5l0.1-0.1c0.3-0.2 0.6-0.5 0.8-0.7 0.1-0.1 0.3-0.2 0.4-0.4l0.7-0.7c0.2-0.2 0.4-0.4 0.5-0.6l0.1-0.1c0.1-0.1 0.1-0.2 0.2-0.2 0.3-0.3 0.5-0.6 0.7-1 0 0 0-0.1 0.1-0.1 0.1-0.1 0.2-0.2 0.2-0.3 0.3-0.4 0.5-0.8 0.7-1.2v-0.1-0.4z"/>
<path class="st3" d="m498.8 478.5c0-0.3-0.1-0.5-0.1-0.8s-0.1-0.7-0.2-1-0.1-0.6-0.2-0.9-0.1-0.6-0.2-0.9l-0.6-1.8c-0.1-0.3-0.2-0.5-0.4-0.8-0.1-0.3-0.3-0.6-0.4-0.9-0.1-0.2-0.3-0.5-0.4-0.7-0.2-0.3-0.3-0.6-0.5-0.8-0.2-0.3-0.4-0.5-0.5-0.7-0.2-0.2-0.3-0.4-0.5-0.7v-0.1c-0.3-0.4-0.7-0.8-1-1.2l-0.2-0.2-102.6-102.2c32.7-38.6 52.5-88.6 52.5-143.1 0-122.3-99.5-221.7-221.7-221.7s-221.8 99.4-221.8 221.7 99.5 221.7 221.7 221.7c54.5 0 104.5-19.8 143.1-52.5l102.6 102.6c0.4 0.4 0.8 0.8 1.2 1.1 0.2 0.2 0.5 0.3 0.7 0.5 0.3 0.2 0.5 0.4 0.8 0.6s0.5 0.3 0.8 0.5c0.2 0.1 0.5 0.3 0.7 0.4 0.3 0.1 0.6 0.3 0.8 0.4 0.3 0.1 0.5 0.3 0.8 0.4s0.5 0.2 0.8 0.3 0.6 0.2 0.9 0.3h0.1c0.2 0.1 0.5 0.1 0.7 0.2 0.3 0.1 0.6 0.2 0.9 0.2 0.3 0.1 0.7 0.1 1 0.1s0.5 0.1 0.8 0.1c0.6 0.1 1.2 0.1 1.8 0.1s1.2 0 1.8-0.1c0.3 0 0.5-0.1 0.8-0.1s0.7-0.1 1-0.2 0.6-0.1 0.9-0.2 0.6-0.1 0.9-0.2 0.6-0.2 0.9-0.3 0.6-0.2 0.8-0.3c0.3-0.1 0.5-0.2 0.8-0.4 0.3-0.1 0.6-0.3 0.9-0.4 0.2-0.1 0.5-0.3 0.7-0.4 0.3-0.2 0.6-0.3 0.8-0.5 0.3-0.2 0.5-0.4 0.8-0.6 0.2-0.2 0.5-0.3 0.7-0.5 0.4-0.3 0.8-0.7 1.2-1.1 0 0 0.1-0.1 0.2-0.1 0.1-0.1 0.1-0.1 0.1-0.2 0.4-0.4 0.7-0.8 1.1-1.2 0.2-0.2 0.4-0.5 0.5-0.7 0.2-0.2 0.4-0.5 0.5-0.7 0.2-0.3 0.3-0.6 0.5-0.8 0.1-0.2 0.3-0.5 0.4-0.7 0.2-0.3 0.3-0.6 0.4-0.9s0.2-0.5 0.4-0.8l0.6-1.8c0.1-0.3 0.2-0.6 0.2-0.9 0.1-0.3 0.2-0.6 0.2-0.9 0.1-0.3 0.1-0.7 0.2-1 0-0.3 0.1-0.5 0.1-0.8 0.3-0.9 0.3-2.1 0.2-3.4zm-461.9-256.8c0-101.9 82.9-184.8 184.8-184.8s184.8 82.9 184.8 184.8-82.9 184.8-184.8 184.8-184.8-82.9-184.8-184.8z"/>















</svg>
