<?xml version="1.0" encoding="utf-8"?>
<!-- Generator: Adobe Illustrator 21.1.0, SVG Export Plug-In . SVG Version: 6.00 Build 0)  -->
<svg version="1.1" id="Layer_1" xmlns="http://www.w3.org/2000/svg" xmlns:xlink="http://www.w3.org/1999/xlink" x="0px" y="0px"
	 viewBox="0 0 331.4 49.5" enable-background="new 0 0 331.4 49.5" xml:space="preserve">
<g>
	<path fill="#FFFFFF" d="M306.4,32c-0.1-6.1,2.5-12.3,9.1-12.3c6.6,0,9.8,6.3,9.8,12.5c0,5.6-2.9,12.4-9.7,12.4
		C309,44.6,306.3,37.2,306.4,32 M325.5,48.7h5.8V0h-6.1v20.1h-0.1c-1.9-3-5.2-5.3-11-5.3c-9.6,0-14.3,7.8-14.3,16.8
		c0,9.1,4.2,18,14.2,18c5.9,0,9.7-3,11.3-5.4h0.1V48.7z"/>
	<path fill="#FFFFFF" d="M25.8,48.7h7.4V30.2c0-1-0.4-2-1.1-2.6L21.1,16.7c-0.7-0.7-1.6-1.1-2.6-1.1H0V23h20.3
		c3.1,0,5.5,2.5,5.5,5.5V48.7"/>
	<path fill="#FFFFFF" d="M44.1,48.7h-7.4V30.2c0-1,0.4-2,1.1-2.6l10.9-10.9c0.7-0.7,1.6-1.1,2.6-1.1h18.5V23H49.6
		c-3,0-5.5,2.5-5.5,5.5V48.7"/>
	<path fill="#FFFFFF" d="M103.1,15.6h5.7v5.1h0.1c1.6-3.4,5.1-5.9,8.6-5.9c1.8,0,2.7,0.2,4,0.5v5.5c-1.1-0.5-2.3-0.6-3.4-0.6
		c-5.5,0-9,5.2-9,13.5v15.1h-6.1V15.6"/>
	<path fill="#FFFFFF" d="M289.7,35.8c0,5-3.2,8.8-9.2,8.8c-2.8,0-6.2-1.9-6.2-5.4c0-5.9,8.2-6.4,11.5-6.4c1.3,0,2.6,0.1,3.9,0.1
		V35.8 M272,23.1c2.5-2.1,6.2-3.4,9.6-3.4c6.1,0,8.2,3,8.2,8.7c-2.4-0.1-4.1-0.1-6.5-0.1c-6.3,0-15.4,2.6-15.4,10.9
		c0,7.3,5,10.4,12.1,10.4c5.6,0,8.8-3,10.2-5h0.1v4.2h5.4V28.5c0-9.1-3.8-13.7-13.3-13.7c-4.2,0-7.8,1.3-10.9,3.1L272,23.1z"/>
	<path fill="#FFFFFF" d="M142.3,35.8c0,5-3.2,8.8-9.2,8.8c-2.8,0-6.2-1.9-6.2-5.4c0-5.9,8.2-6.4,11.5-6.4c1.3,0,2.6,0.1,3.9,0.1
		V35.8 M124.5,23.1c2.5-2.1,6.2-3.4,9.6-3.4c6.1,0,8.2,3,8.2,8.7c-2.4-0.1-4.1-0.1-6.5-0.1c-6.3,0-15.4,2.6-15.4,10.9
		c0,7.3,5,10.4,12.1,10.4c5.6,0,8.8-3,10.2-5h0.1v4.2h5.4V28.5c0-9.1-3.8-13.7-13.3-13.7c-4.2,0-7.8,1.3-10.9,3.1L124.5,23.1z"/>
	<path fill="#FFFFFF" d="M153.4,15.6h5.9v5.2h0.1c1.8-3.8,6.3-6,10.9-6c8.6,0,12.4,5.3,12.4,14.2v19.7h-6.1V31.5
		c0-7.7-1.7-11.5-7-11.8c-7,0-10.1,5.6-10.1,13.7v15.3h-6.1V15.6"/>
	<path fill="#FFFFFF" d="M222.3,42.3c2.4,1.6,5.8,2.4,7.6,2.4c2.8,0,6.2-1.2,6.2-4.8c0-6.1-14.3-5.6-14.3-14.9
		c0-6.9,5.1-10.2,11.7-10.2c2.8,0,5.2,0.6,7.6,1.3l-0.5,5.3c-1.4-0.9-5-1.7-6.4-1.7c-3.1,0-5.8,1.3-5.8,4c0,6.8,14.3,4.8,14.3,15.5
		c0,7.1-5.7,10.3-11.6,10.3c-3.1,0-6.3-0.3-9.1-1.8L222.3,42.3"/>
	<path fill="#FFFFFF" d="M265.9,20.5h-8.8v18.2c0,3.9,2.3,5.9,5.1,5.9c1.9,0,3.2-0.6,4.2-1.2v5.2c-1.4,0.4-3.2,0.9-5.2,0.9
		c-6.3,0-10.2-3-10.2-9.6V20.5h-7.5v-4.9h7.5V7.9l6.1-2v9.6h8.8V20.5"/>
	<path fill="#FFFFFF" d="M193.3,32c-0.1-6.1,2.5-12.3,9.1-12.3c6.6,0,9.8,6.3,9.8,12.5c0,5.6-2.9,12.4-9.7,12.4
		C195.9,44.6,193.1,37.2,193.3,32 M212.4,48.7h5.8V0h-6.1v20.1H212c-1.9-3-5.2-5.3-11-5.3c-9.6,0-14.3,7.8-14.3,16.8
		c0,9.1,4.2,18,14.2,18c5.9,0,9.7-3,11.3-5.4h0.1V48.7z"/>
</g>
</svg>
