<svg version="1.1" viewBox="0 0 462.1 517.5" xml:space="preserve" xmlns="http://www.w3.org/2000/svg" xmlns:x="adobe:ns:meta/">

<style type="text/css">
	.st0{fill:#F7F5F0;}
	.st1{fill:#FFB511;}
	.st2{fill:#0F1941;}
	.st3{fill:#2175D9;}
	.st4{fill:none;}
</style>
<path class="st0" d="m81 406.5h300.2c49.5-42.4 80.9-105.3 80.9-175.5 0-127.6-103.4-231-231-231s-231 103.4-231 231c0 70.2 31.4 133.2 80.9 175.5z"/>
<path class="st1" d="m329.9 138.9c-2.8 0-5.5 0.2-8.1 0.6-6.5-47.2-47-83.5-96-83.5-39.5 0-73.5 23.7-88.6 57.6-5.7-1.5-11.6-2.3-17.8-2.3-38.2 0-69.3 31-69.3 69.3 0 38.2 31 69.3 69.3 69.3h101.7v-46.2c0-5.1 4.1-9.2 9.2-9.2s9.2 4.1 9.2 9.2v36.9h55.2v-36.9c0-5.1 4.1-9.2 9.2-9.2s9.2 4.1 9.2 9.2v46h18.7c29.7-1.1 53.4-25.4 53.4-55.4 0.2-30.6-24.7-55.4-55.3-55.4z"/>
<path class="st2" d="m425.1 443.5c0-20.4-16.5-37-37-37h-314.1c-20.4 0-37 16.5-37 37-20.4 0-37 16.5-37 37 0 20.4 16.5 37 37 37h388c20.4 0 37-16.5 37-37 0.1-20.5-16.5-37-36.9-37z"/>
<path class="st3" d="m239.6 406.5v-36.7h55.2v36.7h18.5v-203c0-5.1-4.1-9.2-9.2-9.2s-9.2 4.1-9.2 9.2v36.9h-55.3v-36.9c0-5.1-4.1-9.2-9.2-9.2s-9.2 4.1-9.2 9.2v203zm0-147.5h55.2v36.9h-55.2zm0 55.4h55.2v36.9h-55.2z"/>
<rect class="st4" x="-406.4" y="-166.3" width="1275" height="850"/>















</svg>
