<?xml version="1.0" encoding="utf-8"?>
<!-- Generator: Adobe Illustrator 22.0.1, SVG Export Plug-In . SVG Version: 6.00 Build 0)  -->
<!DOCTYPE svg PUBLIC "-//W3C//DTD SVG 1.1//EN" "http://www.w3.org/Graphics/SVG/1.1/DTD/svg11.dtd">
<svg version="1.1" id="Laag_1" xmlns="http://www.w3.org/2000/svg" xmlns:xlink="http://www.w3.org/1999/xlink" x="0px" y="0px"
	 width="1275px" height="850px" viewBox="0 0 1275 850" style="enable-background:new 0 0 1275 850;" xml:space="preserve">
<metadata><?xpacket begin="﻿" id="W5M0MpCehiHzreSzNTczkc9d"?>
<x:xmpmeta xmlns:x="adobe:ns:meta/" x:xmptk="Adobe XMP Core 5.6-c143 79.161210, 2017/08/11-10:28:36        ">
   <rdf:RDF xmlns:rdf="http://www.w3.org/1999/02/22-rdf-syntax-ns#">
      <rdf:Description rdf:about=""/>
   </rdf:RDF>
</x:xmpmeta>
                                                                                                    
                                                                                                    
                                                                                                    
                                                                                                    
                                                                                                    
                                                                                                    
                                                                                                    
                                                                                                    
                                                                                                    
                                                                                                    
                                                                                                    
                                                                                                    
                                                                                                    
                                                                                                    
                                                                                                    
                                                                                                    
                                                                                                    
                                                                                                    
                                                                                                    
                                                                                                    
                           
<?xpacket end="w"?></metadata>
<style type="text/css">
	.st0{fill:#F7F5F0;}
	.st1{fill:#FFB511;}
	.st2{fill:#0F1941;}
	.st3{fill:#2175D9;}
	.st4{fill:none;}
</style>
<path class="st0" d="M487.4,572.8h300.2c49.5-42.4,80.9-105.3,80.9-175.5c0-127.6-103.4-231-231-231s-231,103.4-231,231
	C406.5,467.5,437.9,530.5,487.4,572.8z"/>
<path class="st1" d="M736.3,305.2c-2.8,0-5.5,0.2-8.1,0.6c-6.5-47.2-47-83.5-96-83.5c-39.5,0-73.5,23.7-88.6,57.6
	c-5.7-1.5-11.6-2.3-17.8-2.3c-38.2,0-69.3,31-69.3,69.3c0,38.2,31,69.3,69.3,69.3c0,0,0,0,0,0h101.7v-46.2c0-5.1,4.1-9.2,9.2-9.2
	s9.2,4.1,9.2,9.2v36.9h55.2v-36.9c0-5.1,4.1-9.2,9.2-9.2s9.2,4.1,9.2,9.2V416h16.7c0,0,0,0,0,0c0,0,0,0,0,0h2V416
	c29.7-1.1,53.4-25.4,53.4-55.4C791.8,330,766.9,305.2,736.3,305.2z"/>
<path class="st2" d="M831.5,609.8L831.5,609.8c0-20.4-16.5-37-37-37H480.4c-20.4,0-37,16.5-37,37l0,0l0,0c-20.4,0-37,16.5-37,37l0,0
	c0,20.4,16.5,37,37,37h388c20.4,0,37-16.5,37-37l0,0C868.5,626.3,851.9,609.8,831.5,609.8z"/>
<path class="st3" d="M646,572.8v-36.7h55.2v36.7h18.5v-203c0-5.1-4.1-9.2-9.2-9.2s-9.2,4.1-9.2,9.2v36.9H646v-36.9
	c0-5.1-4.1-9.2-9.2-9.2s-9.2,4.1-9.2,9.2v203H646z M646,425.3h55.2v36.9H646V425.3z M646,480.7h55.2v36.9H646V480.7z"/>
<rect class="st4" width="1275" height="850"/>
<g>
</g>
<g>
</g>
<g>
</g>
<g>
</g>
<g>
</g>
<g>
</g>
<g>
</g>
<g>
</g>
<g>
</g>
<g>
</g>
<g>
</g>
<g>
</g>
<g>
</g>
<g>
</g>
<g>
</g>
</svg>
